<svg xmlns="http://www.w3.org/2000/svg" width="1440" height="170"><path d="M898,265L956,666L1203,430Z" fill="#88c6e6" stroke="#88c6e6" stroke-width="1.51"/><path d="M956,666L1368,598L1203,430Z" fill="#87c4e4" stroke="#87c4e4" stroke-width="1.51"/><path d="M898,265L497,374L956,666Z" fill="#93c8e5" stroke="#93c8e5" stroke-width="1.51"/><path d="M497,374L437,624L956,666Z" fill="#8ec4e2" stroke="#8ec4e2" stroke-width="1.51"/><path d="M898,265L426,-209L497,374Z" fill="#88c7e5" stroke="#88c7e5" stroke-width="1.51"/><path d="M1156,-121L955,-128L898,265Z" fill="#69aed8" stroke="#69aed8" stroke-width="1.51"/><path d="M1156,-121L898,265L1203,430Z" fill="#85c6e6" stroke="#85c6e6" stroke-width="1.51"/><path d="M1603,111L1156,-121L1203,430Z" fill="#85c6e6" stroke="#85c6e6" stroke-width="1.51"/><path d="M1368,598L1603,111L1203,430Z" fill="#8bc0e1" stroke="#8bc0e1" stroke-width="1.51"/><path d="M956,666L1626,592L1368,598Z" fill="#8ac1e2" stroke="#8ac1e2" stroke-width="1.51"/><path d="M1626,592L1603,111L1368,598Z" fill="#8cbfe0" stroke="#8cbfe0" stroke-width="1.51"/><path d="M497,374L268,321L437,624Z" fill="#7bbad9" stroke="#7bbad9" stroke-width="1.51"/><path d="M426,-209L268,321L497,374Z" fill="#79bbda" stroke="#79bbda" stroke-width="1.51"/><path d="M437,624L208,685L956,666Z" fill="#86c0de" stroke="#86c0de" stroke-width="1.51"/><path d="M268,321L208,685L437,624Z" fill="#76b5d7" stroke="#76b5d7" stroke-width="1.51"/><path d="M707,-466L426,-209L955,-128Z" fill="#74add6" stroke="#74add6" stroke-width="1.51"/><path d="M955,-128L426,-209L898,265Z" fill="#75add7" stroke="#75add7" stroke-width="1.51"/><path d="M1156,-121L902,-433L955,-128Z" fill="#68abd7" stroke="#68abd7" stroke-width="1.51"/><path d="M1378,-401L902,-433L1156,-121Z" fill="#66aad6" stroke="#66aad6" stroke-width="1.51"/><path d="M1603,111L1378,-401L1156,-121Z" fill="#6ba6d2" stroke="#6ba6d2" stroke-width="1.51"/><path d="M1496,-517L707,-466L902,-433Z" fill="#67abd7" stroke="#67abd7" stroke-width="1.51"/><path d="M902,-433L707,-466L955,-128Z" fill="#70add7" stroke="#70add7" stroke-width="1.51"/><path d="M60,49L-13,411L268,321Z" fill="#70aad3" stroke="#70aad3" stroke-width="1.51"/><path d="M268,321L-13,411L208,685Z" fill="#71add4" stroke="#71add4" stroke-width="1.51"/><path d="M426,-209L60,49L268,321Z" fill="#66afd2" stroke="#66afd2" stroke-width="1.51"/><path d="M141,-440L60,49L426,-209Z" fill="#5196c7" stroke="#5196c7" stroke-width="1.51"/><path d="M1603,111L1789,-209L1378,-401Z" fill="#6ca5d2" stroke="#6ca5d2" stroke-width="1.51"/><path d="M2010,151L1789,-209L1603,111Z" fill="#71add4" stroke="#71add4" stroke-width="1.51"/><path d="M1626,592L2010,151L1603,111Z" fill="#8cbfe0" stroke="#8cbfe0" stroke-width="1.51"/><path d="M1789,-209L1496,-517L1378,-401Z" fill="#6ca5d2" stroke="#6ca5d2" stroke-width="1.51"/><path d="M1378,-401L1496,-517L902,-433Z" fill="#68a8d4" stroke="#68a8d4" stroke-width="1.51"/><path d="M1626,592L2122,510L2010,151Z" fill="#8cbfe0" stroke="#8cbfe0" stroke-width="1.51"/><path d="M1789,-209L2087,-430L1496,-517Z" fill="#6ca5d2" stroke="#6ca5d2" stroke-width="1.51"/><path d="M2010,151L2095,58L1789,-209Z" fill="#6ca5d2" stroke="#6ca5d2" stroke-width="1.51"/><path d="M2122,510L2095,58L2010,151Z" fill="#8cbfe0" stroke="#8cbfe0" stroke-width="1.51"/><path d="M60,49L-129,-79L-13,411Z" fill="#64abd7" stroke="#64abd7" stroke-width="1.51"/><path d="M707,-466L141,-440L426,-209Z" fill="#5ca1cc" stroke="#5ca1cc" stroke-width="1.51"/><path d="M-226,-537L141,-440L707,-466Z" fill="#5096c7" stroke="#5096c7" stroke-width="1.51"/><path d="M141,-440L-129,-79L60,49Z" fill="#4a8cc4" stroke="#4a8cc4" stroke-width="1.51"/><path d="M208,685L-262,780L956,666Z" fill="#76b5d7" stroke="#76b5d7" stroke-width="1.51"/><path d="M-13,411L-262,780L208,685Z" fill="#6ca5d2" stroke="#6ca5d2" stroke-width="1.51"/><path d="M-489,258L-262,780L-13,411Z" fill="#6ca5d2" stroke="#6ca5d2" stroke-width="1.51"/><path d="M2122,510L2087,-430L2095,58Z" fill="#7abad9" stroke="#7abad9" stroke-width="1.51"/><path d="M2095,58L2087,-430L1789,-209Z" fill="#6ca5d2" stroke="#6ca5d2" stroke-width="1.51"/><path d="M-129,-79L-489,258L-13,411Z" fill="#6ca5d2" stroke="#6ca5d2" stroke-width="1.51"/><path d="M-694,-181L-489,258L-129,-79Z" fill="#498bc3" stroke="#498bc3" stroke-width="1.51"/><path d="M141,-440L-226,-537L-129,-79Z" fill="#498bc3" stroke="#498bc3" stroke-width="1.51"/><path d="M1496,-517L-226,-537L707,-466Z" fill="#71abd5" stroke="#71abd5" stroke-width="1.51"/><path d="M-489,258L-620,733L-262,780Z" fill="#6ca5d2" stroke="#6ca5d2" stroke-width="1.51"/><path d="M-489,258L-694,-181L-620,733Z" fill="#6ca5d2" stroke="#6ca5d2" stroke-width="1.51"/><path d="M-636,-356L-694,-181L-129,-79Z" fill="#498bc3" stroke="#498bc3" stroke-width="1.51"/><path d="M-226,-537L-636,-356L-129,-79Z" fill="#498bc3" stroke="#498bc3" stroke-width="1.51"/></svg>