<svg xmlns="http://www.w3.org/2000/svg" width="1440" height="70"><path d="M714,33L680,-9L672,31Z" fill="#6c6d6a" stroke="#6c6d6a" stroke-width="1.51"/><path d="M714,33L718,-14L680,-9Z" fill="#7e7d7b" stroke="#7e7d7b" stroke-width="1.51"/><path d="M672,31L674,75L714,33Z" fill="#434544" stroke="#434544" stroke-width="1.51"/><path d="M628,-14L629,30L672,31Z" fill="#7c7c79" stroke="#7c7c79" stroke-width="1.51"/><path d="M672,31L639,75L674,75Z" fill="#6c6e6c" stroke="#6c6e6c" stroke-width="1.51"/><path d="M680,-9L628,-14L672,31Z" fill="#898785" stroke="#898785" stroke-width="1.51"/><path d="M718,-14L682,-52L680,-9Z" fill="#858282" stroke="#858282" stroke-width="1.51"/><path d="M718,-14L725,-47L682,-52Z" fill="#817f7f" stroke="#817f7f" stroke-width="1.51"/><path d="M766,-8L725,-47L718,-14Z" fill="#817f7e" stroke="#817f7e" stroke-width="1.51"/><path d="M714,33L760,35L718,-14Z" fill="#696966" stroke="#696966" stroke-width="1.51"/><path d="M725,81L760,35L714,33Z" fill="#464847" stroke="#464847" stroke-width="1.51"/><path d="M633,-53L628,-14L680,-9Z" fill="#8f8d8b" stroke="#8f8d8b" stroke-width="1.51"/><path d="M674,75L725,81L714,33Z" fill="#6a6d6b" stroke="#6a6d6b" stroke-width="1.51"/><path d="M760,35L766,-8L718,-14Z" fill="#7d7c7a" stroke="#7d7c7a" stroke-width="1.51"/><path d="M629,30L639,75L672,31Z" fill="#484a48" stroke="#484a48" stroke-width="1.51"/><path d="M674,75L717,118L725,81Z" fill="#7e807f" stroke="#7e807f" stroke-width="1.51"/><path d="M725,81L759,73L760,35Z" fill="#6a6d6c" stroke="#6a6d6c" stroke-width="1.51"/><path d="M806,32L803,-12L766,-8Z" fill="#838180" stroke="#838180" stroke-width="1.51"/><path d="M682,-52L633,-53L680,-9Z" fill="#8b8987" stroke="#8b8987" stroke-width="1.51"/><path d="M766,-8L763,-47L725,-47Z" fill="#828180" stroke="#828180" stroke-width="1.51"/><path d="M725,-47L763,-47L682,-52Z" fill="#7f7d7d" stroke="#7f7d7d" stroke-width="1.51"/><path d="M725,81L764,126L759,73Z" fill="#7e8080" stroke="#7e8080" stroke-width="1.51"/><path d="M674,124L717,118L674,75Z" fill="#818383" stroke="#818383" stroke-width="1.51"/><path d="M584,-56L589,-4L628,-14Z" fill="#999795" stroke="#999795" stroke-width="1.51"/><path d="M628,-14L589,-4L629,30Z" fill="#918f8d" stroke="#918f8d" stroke-width="1.51"/><path d="M629,30L585,73L639,75Z" fill="#727573" stroke="#727573" stroke-width="1.51"/><path d="M589,-4L585,35L629,30Z" fill="#767773" stroke="#767773" stroke-width="1.51"/><path d="M639,75L674,124L674,75Z" fill="#878988" stroke="#878988" stroke-width="1.51"/><path d="M634,125L674,124L639,75Z" fill="#8a8c8b" stroke="#8a8c8b" stroke-width="1.51"/><path d="M766,-8L803,-12L763,-47Z" fill="#868483" stroke="#868483" stroke-width="1.51"/><path d="M806,32L766,-8L760,35Z" fill="#686865" stroke="#686865" stroke-width="1.51"/><path d="M804,73L806,32L760,35Z" fill="#454746" stroke="#454746" stroke-width="1.51"/><path d="M804,73L760,35L759,73Z" fill="#666967" stroke="#666967" stroke-width="1.51"/><path d="M585,35L585,73L629,30Z" fill="#535553" stroke="#535553" stroke-width="1.51"/><path d="M764,126L804,73L759,73Z" fill="#818483" stroke="#818483" stroke-width="1.51"/><path d="M595,124L634,125L639,75Z" fill="#909291" stroke="#909291" stroke-width="1.51"/><path d="M763,-47L849,-57L682,-52Z" fill="#848282" stroke="#848282" stroke-width="1.51"/><path d="M803,-12L804,-49L763,-47Z" fill="#878685" stroke="#878685" stroke-width="1.51"/><path d="M853,-7L804,-49L803,-12Z" fill="#8b8a89" stroke="#8b8a89" stroke-width="1.51"/><path d="M633,-53L584,-56L628,-14Z" fill="#969392" stroke="#969392" stroke-width="1.51"/><path d="M589,-4L545,-5L585,35Z" fill="#949390" stroke="#949390" stroke-width="1.51"/><path d="M585,35L543,35L585,73Z" fill="#5d5f5d" stroke="#5d5f5d" stroke-width="1.51"/><path d="M682,-52L584,-56L633,-53Z" fill="#928f8e" stroke="#928f8e" stroke-width="1.51"/><path d="M849,-57L584,-56L682,-52Z" fill="#82807f" stroke="#82807f" stroke-width="1.51"/><path d="M717,118L764,126L725,81Z" fill="#7d7f7e" stroke="#7d7f7e" stroke-width="1.51"/><path d="M674,124L764,126L717,118Z" fill="#7b7d7d" stroke="#7b7d7d" stroke-width="1.51"/><path d="M634,125L764,126L674,124Z" fill="#818382" stroke="#818382" stroke-width="1.51"/><path d="M585,73L595,124L639,75Z" fill="#949594" stroke="#949594" stroke-width="1.51"/><path d="M546,-50L545,-5L589,-4Z" fill="#a2a09e" stroke="#a2a09e" stroke-width="1.51"/><path d="M585,73L550,115L595,124Z" fill="#9a9c9a" stroke="#9a9c9a" stroke-width="1.51"/><path d="M545,-5L543,35L585,35Z" fill="#7a7b77" stroke="#7a7b77" stroke-width="1.51"/><path d="M806,32L853,-7L803,-12Z" fill="#868584" stroke="#868584" stroke-width="1.51"/><path d="M804,73L845,40L806,32Z" fill="#4c4f4d" stroke="#4c4f4d" stroke-width="1.51"/><path d="M854,79L845,40L804,73Z" fill="#777a79" stroke="#777a79" stroke-width="1.51"/><path d="M764,126L809,124L804,73Z" fill="#848685" stroke="#848685" stroke-width="1.51"/><path d="M845,40L853,-7L806,32Z" fill="#656764" stroke="#656764" stroke-width="1.51"/><path d="M584,-56L546,-50L589,-4Z" fill="#9f9d9b" stroke="#9f9d9b" stroke-width="1.51"/><path d="M545,-5L499,34L543,35Z" fill="#81827e" stroke="#81827e" stroke-width="1.51"/><path d="M543,35L545,82L585,73Z" fill="#8a8d8b" stroke="#8a8d8b" stroke-width="1.51"/><path d="M804,-49L849,-57L763,-47Z" fill="#8a8787" stroke="#8a8787" stroke-width="1.51"/><path d="M853,-7L849,-57L804,-49Z" fill="#8d8b8b" stroke="#8d8b8b" stroke-width="1.51"/><path d="M809,124L854,79L804,73Z" fill="#878a89" stroke="#878a89" stroke-width="1.51"/><path d="M845,40L896,33L853,-7Z" fill="#686966" stroke="#686966" stroke-width="1.51"/><path d="M545,82L550,115L585,73Z" fill="#9ea09e" stroke="#9ea09e" stroke-width="1.51"/><path d="M546,-50L507,-14L545,-5Z" fill="#a8a6a4" stroke="#a8a6a4" stroke-width="1.51"/><path d="M543,35L498,78L545,82Z" fill="#969895" stroke="#969895" stroke-width="1.51"/><path d="M545,82L508,116L550,115Z" fill="#a4a6a3" stroke="#a4a6a3" stroke-width="1.51"/><path d="M809,124L852,121L854,79Z" fill="#8a8c8b" stroke="#8a8c8b" stroke-width="1.51"/><path d="M507,-14L499,34L545,-5Z" fill="#a5a4a1" stroke="#a5a4a1" stroke-width="1.51"/><path d="M507,-14L466,-13L499,34Z" fill="#afacaa" stroke="#afacaa" stroke-width="1.51"/><path d="M546,-50L504,-49L507,-14Z" fill="#aba9a7" stroke="#aba9a7" stroke-width="1.51"/><path d="M463,-54L504,-49L546,-50Z" fill="#afacaa" stroke="#afacaa" stroke-width="1.51"/><path d="M897,72L845,40L854,79Z" fill="#7a7d7c" stroke="#7a7d7c" stroke-width="1.51"/><path d="M897,72L896,33L845,40Z" fill="#535654" stroke="#535654" stroke-width="1.51"/><path d="M853,-7L894,-52L849,-57Z" fill="#918f8f" stroke="#918f8f" stroke-width="1.51"/><path d="M896,33L898,-3L853,-7Z" fill="#8a8987" stroke="#8a8987" stroke-width="1.51"/><path d="M499,34L498,78L543,35Z" fill="#6c6e6b" stroke="#6c6e6b" stroke-width="1.51"/><path d="M898,-3L894,-52L853,-7Z" fill="#939291" stroke="#939291" stroke-width="1.51"/><path d="M896,33L933,29L898,-3Z" fill="#787975" stroke="#787975" stroke-width="1.51"/><path d="M894,116L897,72L854,79Z" fill="#8f9291" stroke="#8f9291" stroke-width="1.51"/><path d="M498,78L508,116L545,82Z" fill="#a7a9a7" stroke="#a7a9a7" stroke-width="1.51"/><path d="M550,115L508,116L595,124Z" fill="#a0a2a0" stroke="#a0a2a0" stroke-width="1.51"/><path d="M852,121L894,116L854,79Z" fill="#8d8f8f" stroke="#8d8f8f" stroke-width="1.51"/><path d="M504,-49L466,-13L507,-14Z" fill="#b2afad" stroke="#b2afad" stroke-width="1.51"/><path d="M499,34L463,40L498,78Z" fill="#767875" stroke="#767875" stroke-width="1.51"/><path d="M498,78L456,115L508,116Z" fill="#aeb0ae" stroke="#aeb0ae" stroke-width="1.51"/><path d="M466,-13L463,40L499,34Z" fill="#91928d" stroke="#91928d" stroke-width="1.51"/><path d="M897,72L933,29L896,33Z" fill="#4e504f" stroke="#4e504f" stroke-width="1.51"/><path d="M898,-3L932,-48L894,-52Z" fill="#969594" stroke="#969594" stroke-width="1.51"/><path d="M932,83L933,29L897,72Z" fill="#7a7e7c" stroke="#7a7e7c" stroke-width="1.51"/><path d="M421,32L455,80L463,40Z" fill="#7f817e" stroke="#7f817e" stroke-width="1.51"/><path d="M504,-49L463,-54L466,-13Z" fill="#b5b2b0" stroke="#b5b2b0" stroke-width="1.51"/><path d="M584,-56L463,-54L546,-50Z" fill="#a8a6a4" stroke="#a8a6a4" stroke-width="1.51"/><path d="M933,29L937,-6L898,-3Z" fill="#908f8e" stroke="#908f8e" stroke-width="1.51"/><path d="M937,-6L932,-48L898,-3Z" fill="#989796" stroke="#989796" stroke-width="1.51"/><path d="M894,-52L1024,-55L849,-57Z" fill="#989796" stroke="#989796" stroke-width="1.51"/><path d="M463,40L455,80L498,78Z" fill="#a6a7a5" stroke="#a6a7a5" stroke-width="1.51"/><path d="M421,32L463,40L466,-13Z" fill="#9a9b95" stroke="#9a9b95" stroke-width="1.51"/><path d="M933,29L981,36L937,-6Z" fill="#7c7e7a" stroke="#7c7e7a" stroke-width="1.51"/><path d="M894,116L932,83L897,72Z" fill="#929594" stroke="#929594" stroke-width="1.51"/><path d="M508,116L418,125L595,124Z" fill="#aaaba9" stroke="#aaaba9" stroke-width="1.51"/><path d="M455,80L456,115L498,78Z" fill="#b3b4b2" stroke="#b3b4b2" stroke-width="1.51"/><path d="M894,116L939,118L932,83Z" fill="#949796" stroke="#949796" stroke-width="1.51"/><path d="M932,83L981,36L933,29Z" fill="#5d615f" stroke="#5d615f" stroke-width="1.51"/><path d="M852,121L939,118L894,116Z" fill="#909392" stroke="#909392" stroke-width="1.51"/><path d="M984,125L939,118L852,121Z" fill="#949796" stroke="#949796" stroke-width="1.51"/><path d="M455,80L422,82L456,115Z" fill="#b8bab7" stroke="#b8bab7" stroke-width="1.51"/><path d="M418,-11L421,32L466,-13Z" fill="#bbb9b6" stroke="#bbb9b6" stroke-width="1.51"/><path d="M463,-54L418,-11L466,-13Z" fill="#bcb9b6" stroke="#bcb9b6" stroke-width="1.51"/><path d="M421,32L422,82L455,80Z" fill="#aaaca9" stroke="#aaaca9" stroke-width="1.51"/><path d="M418,125L422,82L376,122Z" fill="#c1c3c0" stroke="#c1c3c0" stroke-width="1.51"/><path d="M981,77L981,36L932,83Z" fill="#8c8f8e" stroke="#8c8f8e" stroke-width="1.51"/><path d="M937,-6L982,-15L932,-48Z" fill="#9c9b9a" stroke="#9c9b9a" stroke-width="1.51"/><path d="M380,76L422,82L421,32Z" fill="#acaeab" stroke="#acaeab" stroke-width="1.51"/><path d="M463,-54L414,-58L418,-11Z" fill="#bfbdba" stroke="#bfbdba" stroke-width="1.51"/><path d="M584,-56L414,-58L463,-54Z" fill="#b3b0ae" stroke="#b3b0ae" stroke-width="1.51"/><path d="M849,-57L414,-58L584,-56Z" fill="#969392" stroke="#969392" stroke-width="1.51"/><path d="M981,36L982,-15L937,-6Z" fill="#989795" stroke="#989795" stroke-width="1.51"/><path d="M981,36L1016,30L982,-15Z" fill="#8c8d8a" stroke="#8c8d8a" stroke-width="1.51"/><path d="M939,118L981,77L932,83Z" fill="#989b9a" stroke="#989b9a" stroke-width="1.51"/><path d="M982,-15L982,-48L932,-48Z" fill="#9e9d9c" stroke="#9e9d9c" stroke-width="1.51"/><path d="M932,-48L1024,-55L894,-52Z" fill="#9c9b9a" stroke="#9c9b9a" stroke-width="1.51"/><path d="M456,115L418,125L508,116Z" fill="#b5b6b4" stroke="#b5b6b4" stroke-width="1.51"/><path d="M595,124L418,125L634,125Z" fill="#a0a2a0" stroke="#a0a2a0" stroke-width="1.51"/><path d="M634,125L418,125L764,126Z" fill="#949694" stroke="#949694" stroke-width="1.51"/><path d="M422,82L418,125L456,115Z" fill="#bbbdba" stroke="#bbbdba" stroke-width="1.51"/><path d="M378,-9L421,32L418,-11Z" fill="#c0bebb" stroke="#c0bebb" stroke-width="1.51"/><path d="M981,77L1016,30L981,36Z" fill="#5e6160" stroke="#5e6160" stroke-width="1.51"/><path d="M982,-15L1024,-55L982,-48Z" fill="#a2a1a0" stroke="#a2a1a0" stroke-width="1.51"/><path d="M939,118L984,125L981,77Z" fill="#9a9d9c" stroke="#9a9d9c" stroke-width="1.51"/><path d="M809,124L984,125L852,121Z" fill="#8f9291" stroke="#8f9291" stroke-width="1.51"/><path d="M764,126L984,125L809,124Z" fill="#8b8e8d" stroke="#8b8e8d" stroke-width="1.51"/><path d="M375,-48L378,-9L418,-11Z" fill="#c9c6c4" stroke="#c9c6c4" stroke-width="1.51"/><path d="M368,40L380,76L421,32Z" fill="#878986" stroke="#878986" stroke-width="1.51"/><path d="M1024,80L1016,30L981,77Z" fill="#888c8b" stroke="#888c8b" stroke-width="1.51"/><path d="M378,-9L368,40L421,32Z" fill="#a2a29d" stroke="#a2a29d" stroke-width="1.51"/><path d="M414,-58L375,-48L418,-11Z" fill="#c6c4c0" stroke="#c6c4c0" stroke-width="1.51"/><path d="M336,-11L368,40L378,-9Z" fill="#c7c5c1" stroke="#c7c5c1" stroke-width="1.51"/><path d="M1016,30L1026,-3L982,-15Z" fill="#9e9e9c" stroke="#9e9e9c" stroke-width="1.51"/><path d="M329,83L376,122L380,76Z" fill="#cbcdca" stroke="#cbcdca" stroke-width="1.51"/><path d="M380,76L376,122L422,82Z" fill="#c4c6c3" stroke="#c4c6c3" stroke-width="1.51"/><path d="M1016,30L1060,39L1026,-3Z" fill="#7c7e7b" stroke="#7c7e7b" stroke-width="1.51"/><path d="M1021,121L1024,80L981,77Z" fill="#9fa2a1" stroke="#9fa2a1" stroke-width="1.51"/><path d="M1026,-3L1024,-55L982,-15Z" fill="#a4a3a2" stroke="#a4a3a2" stroke-width="1.51"/><path d="M982,-48L1024,-55L932,-48Z" fill="#a09f9d" stroke="#a09f9d" stroke-width="1.51"/><path d="M984,125L1021,121L981,77Z" fill="#9ea1a0" stroke="#9ea1a0" stroke-width="1.51"/><path d="M375,-48L336,-11L378,-9Z" fill="#d0cdca" stroke="#d0cdca" stroke-width="1.51"/><path d="M368,40L329,83L380,76Z" fill="#c0c2bf" stroke="#c0c2bf" stroke-width="1.51"/><path d="M375,-48L334,-52L336,-11Z" fill="#d1cecb" stroke="#d1cecb" stroke-width="1.51"/><path d="M414,-58L334,-52L375,-48Z" fill="#cdcac7" stroke="#cdcac7" stroke-width="1.51"/><path d="M1061,73L1060,39L1024,80Z" fill="#929695" stroke="#929695" stroke-width="1.51"/><path d="M1024,80L1060,39L1016,30Z" fill="#686b6a" stroke="#686b6a" stroke-width="1.51"/><path d="M1026,-3L1065,-47L1024,-55Z" fill="#a7a7a6" stroke="#a7a7a6" stroke-width="1.51"/><path d="M290,40L326,29L288,-5Z" fill="#ababa6" stroke="#ababa6" stroke-width="1.51"/><path d="M336,-11L326,29L368,40Z" fill="#b1b1ab" stroke="#b1b1ab" stroke-width="1.51"/><path d="M326,29L329,83L368,40Z" fill="#939591" stroke="#939591" stroke-width="1.51"/><path d="M1063,122L1061,73L1024,80Z" fill="#a5a8a7" stroke="#a5a8a7" stroke-width="1.51"/><path d="M1108,-11L1069,-9L1112,38Z" fill="#a8a7a6" stroke="#a8a7a6" stroke-width="1.51"/><path d="M1060,39L1069,-9L1026,-3Z" fill="#9e9e9c" stroke="#9e9e9c" stroke-width="1.51"/><path d="M1069,-9L1065,-47L1026,-3Z" fill="#aaa8a7" stroke="#aaa8a7" stroke-width="1.51"/><path d="M290,120L327,124L329,83Z" fill="#cfd0cd" stroke="#cfd0cd" stroke-width="1.51"/><path d="M329,83L327,124L376,122Z" fill="#cdcecb" stroke="#cdcecb" stroke-width="1.51"/><path d="M376,122L327,124L418,125Z" fill="#c9cac7" stroke="#c9cac7" stroke-width="1.51"/><path d="M1112,38L1069,-9L1060,39Z" fill="#7f817e" stroke="#7f817e" stroke-width="1.51"/><path d="M1021,121L1063,122L1024,80Z" fill="#a3a6a5" stroke="#a3a6a5" stroke-width="1.51"/><path d="M984,125L1063,122L1021,121Z" fill="#a1a4a3" stroke="#a1a4a3" stroke-width="1.51"/><path d="M326,29L290,40L329,83Z" fill="#949693" stroke="#949693" stroke-width="1.51"/><path d="M288,-5L326,29L336,-11Z" fill="#cdcbc7" stroke="#cdcbc7" stroke-width="1.51"/><path d="M288,-53L288,-5L336,-11Z" fill="#d4d0ce" stroke="#d4d0ce" stroke-width="1.51"/><path d="M290,40L292,82L329,83Z" fill="#cacbc8" stroke="#cacbc8" stroke-width="1.51"/><path d="M334,-52L288,-53L336,-11Z" fill="#d3d0cd" stroke="#d3d0cd" stroke-width="1.51"/><path d="M414,-58L288,-53L334,-52Z" fill="#d1cecb" stroke="#d1cecb" stroke-width="1.51"/><path d="M1069,-9L1108,-11L1065,-47Z" fill="#adacab" stroke="#adacab" stroke-width="1.51"/><path d="M1112,38L1060,39L1061,73Z" fill="#6e7270" stroke="#6e7270" stroke-width="1.51"/><path d="M248,118L290,120L292,82Z" fill="#d1d2d0" stroke="#d1d2d0" stroke-width="1.51"/><path d="M292,82L290,120L329,83Z" fill="#cfd0ce" stroke="#cfd0ce" stroke-width="1.51"/><path d="M248,80L292,82L290,40Z" fill="#c9c9c7" stroke="#c9c9c7" stroke-width="1.51"/><path d="M1112,82L1112,38L1061,73Z" fill="#999d9c" stroke="#999d9c" stroke-width="1.51"/><path d="M1063,122L1112,82L1061,73Z" fill="#a8acab" stroke="#a8acab" stroke-width="1.51"/><path d="M1108,-11L1114,-53L1065,-47Z" fill="#afaead" stroke="#afaead" stroke-width="1.51"/><path d="M1065,-47L1114,-53L1024,-55Z" fill="#abaaa9" stroke="#abaaa9" stroke-width="1.51"/><path d="M1152,-13L1114,-53L1108,-11Z" fill="#b3b2b2" stroke="#b3b2b2" stroke-width="1.51"/><path d="M1152,-13L1108,-11L1156,31Z" fill="#b2b2b1" stroke="#b2b2b1" stroke-width="1.51"/><path d="M1155,122L1109,121L1063,122Z" fill="#adb0af" stroke="#adb0af" stroke-width="1.51"/><path d="M1063,122L1109,121L1112,82Z" fill="#abaead" stroke="#abaead" stroke-width="1.51"/><path d="M288,-5L247,37L290,40Z" fill="#a0a09b" stroke="#a0a09b" stroke-width="1.51"/><path d="M288,-53L248,-9L288,-5Z" fill="#d6d2d0" stroke="#d6d2d0" stroke-width="1.51"/><path d="M248,-9L247,37L288,-5Z" fill="#cccac6" stroke="#cccac6" stroke-width="1.51"/><path d="M247,37L248,80L290,40Z" fill="#9c9d9a" stroke="#9c9d9a" stroke-width="1.51"/><path d="M195,29L205,79L247,37Z" fill="#949592" stroke="#949592" stroke-width="1.51"/><path d="M288,-53L248,-56L248,-9Z" fill="#d7d3d1" stroke="#d7d3d1" stroke-width="1.51"/><path d="M414,-58L248,-56L288,-53Z" fill="#d3d0cd" stroke="#d3d0cd" stroke-width="1.51"/><path d="M203,116L248,118L248,80Z" fill="#d4d4d2" stroke="#d4d4d2" stroke-width="1.51"/><path d="M248,80L248,118L292,82Z" fill="#d2d3d1" stroke="#d2d3d1" stroke-width="1.51"/><path d="M290,120L159,124L327,124Z" fill="#d2d3d1" stroke="#d2d3d1" stroke-width="1.51"/><path d="M1151,76L1112,38L1112,82Z" fill="#a1a4a3" stroke="#a1a4a3" stroke-width="1.51"/><path d="M1156,31L1108,-11L1112,38Z" fill="#959793" stroke="#959793" stroke-width="1.51"/><path d="M1155,122L1151,76L1112,82Z" fill="#b1b4b4" stroke="#b1b4b4" stroke-width="1.51"/><path d="M1151,76L1156,31L1112,38Z" fill="#737775" stroke="#737775" stroke-width="1.51"/><path d="M1152,-13L1152,-56L1114,-53Z" fill="#b6b4b4" stroke="#b6b4b4" stroke-width="1.51"/><path d="M1114,-53L1152,-56L1024,-55Z" fill="#afafae" stroke="#afafae" stroke-width="1.51"/><path d="M1024,-55L1152,-56L849,-57Z" fill="#a4a2a1" stroke="#a4a2a1" stroke-width="1.51"/><path d="M1193,-46L1152,-56L1152,-13Z" fill="#b9b9b8" stroke="#b9b9b8" stroke-width="1.51"/><path d="M984,125L1155,122L1063,122Z" fill="#a7aaa9" stroke="#a7aaa9" stroke-width="1.51"/><path d="M1109,121L1155,122L1112,82Z" fill="#afb3b2" stroke="#afb3b2" stroke-width="1.51"/><path d="M1194,36L1190,-4L1156,31Z" fill="#959794" stroke="#959794" stroke-width="1.51"/><path d="M247,37L205,79L248,80Z" fill="#c6c6c4" stroke="#c6c6c4" stroke-width="1.51"/><path d="M195,29L247,37L248,-9Z" fill="#bab9b4" stroke="#bab9b4" stroke-width="1.51"/><path d="M248,-56L204,-55L248,-9Z" fill="#d8d4d2" stroke="#d8d4d2" stroke-width="1.51"/><path d="M204,-55L199,-10L248,-9Z" fill="#d9d5d3" stroke="#d9d5d3" stroke-width="1.51"/><path d="M1194,36L1156,31L1151,76Z" fill="#757877" stroke="#757877" stroke-width="1.51"/><path d="M1156,31L1190,-4L1152,-13Z" fill="#b3b3b1" stroke="#b3b3b1" stroke-width="1.51"/><path d="M199,-10L195,29L248,-9Z" fill="#d5d1cf" stroke="#d5d1cf" stroke-width="1.51"/><path d="M1194,76L1194,36L1151,76Z" fill="#a1a5a3" stroke="#a1a5a3" stroke-width="1.51"/><path d="M161,72L203,116L205,79Z" fill="#d7d7d5" stroke="#d7d7d5" stroke-width="1.51"/><path d="M205,79L203,116L248,80Z" fill="#d5d5d3" stroke="#d5d5d3" stroke-width="1.51"/><path d="M248,118L159,124L290,120Z" fill="#d4d4d2" stroke="#d4d4d2" stroke-width="1.51"/><path d="M1190,-4L1193,-46L1152,-13Z" fill="#bcbaba" stroke="#bcbaba" stroke-width="1.51"/><path d="M1237,-4L1193,-46L1190,-4Z" fill="#c0bfbe" stroke="#c0bfbe" stroke-width="1.51"/><path d="M1155,122L1194,76L1151,76Z" fill="#b5b9b8" stroke="#b5b9b8" stroke-width="1.51"/><path d="M1155,122L1199,118L1194,76Z" fill="#b8bbba" stroke="#b8bbba" stroke-width="1.51"/><path d="M1240,29L1237,-4L1194,36Z" fill="#9ea09d" stroke="#9ea09d" stroke-width="1.51"/><path d="M1194,36L1237,-4L1190,-4Z" fill="#b4b4b2" stroke="#b4b4b2" stroke-width="1.51"/><path d="M199,-10L161,-6L195,29Z" fill="#d6d2d0" stroke="#d6d2d0" stroke-width="1.51"/><path d="M195,29L161,72L205,79Z" fill="#b8b9b6" stroke="#b8b9b6" stroke-width="1.51"/><path d="M161,-53L161,-6L199,-10Z" fill="#dcd8d6" stroke="#dcd8d6" stroke-width="1.51"/><path d="M154,29L161,72L195,29Z" fill="#8a8a88" stroke="#8a8a88" stroke-width="1.51"/><path d="M204,-55L161,-53L199,-10Z" fill="#dbd7d5" stroke="#dbd7d5" stroke-width="1.51"/><path d="M118,32L154,29L113,-10Z" fill="#c8c6c2" stroke="#c8c6c2" stroke-width="1.51"/><path d="M161,-6L154,29L195,29Z" fill="#c5c3bf" stroke="#c5c3bf" stroke-width="1.51"/><path d="M1240,29L1194,36L1239,75Z" fill="#7a7e7c" stroke="#7a7e7c" stroke-width="1.51"/><path d="M115,115L159,124L161,72Z" fill="#dad9d8" stroke="#dad9d8" stroke-width="1.51"/><path d="M161,72L159,124L203,116Z" fill="#d8d8d6" stroke="#d8d8d6" stroke-width="1.51"/><path d="M203,116L159,124L248,118Z" fill="#d6d6d4" stroke="#d6d6d4" stroke-width="1.51"/><path d="M327,124L159,124L418,125Z" fill="#d0d1ce" stroke="#d0d1ce" stroke-width="1.51"/><path d="M1237,-4L1236,-52L1193,-46Z" fill="#c2c1c0" stroke="#c2c1c0" stroke-width="1.51"/><path d="M1193,-46L1236,-52L1152,-56Z" fill="#bebdbc" stroke="#bebdbc" stroke-width="1.51"/><path d="M1239,75L1194,36L1194,76Z" fill="#a4a8a7" stroke="#a4a8a7" stroke-width="1.51"/><path d="M1237,-4L1275,-49L1236,-52Z" fill="#c6c5c5" stroke="#c6c5c5" stroke-width="1.51"/><path d="M1199,118L1239,75L1194,76Z" fill="#bcbfbe" stroke="#bcbfbe" stroke-width="1.51"/><path d="M1199,118L1236,118L1239,75Z" fill="#bec2c0" stroke="#bec2c0" stroke-width="1.51"/><path d="M1277,122L1236,118L1199,118Z" fill="#c0c3c3" stroke="#c0c3c3" stroke-width="1.51"/><path d="M154,29L118,32L161,72Z" fill="#8e8e8c" stroke="#8e8e8c" stroke-width="1.51"/><path d="M113,-10L154,29L161,-6Z" fill="#d8d5d2" stroke="#d8d5d2" stroke-width="1.51"/><path d="M161,-53L113,-10L161,-6Z" fill="#ded9d8" stroke="#ded9d8" stroke-width="1.51"/><path d="M118,32L114,75L161,72Z" fill="#bbbbb9" stroke="#bbbbb9" stroke-width="1.51"/><path d="M74,77L114,75L66,37Z" fill="#c8c7c6" stroke="#c8c7c6" stroke-width="1.51"/><path d="M1283,30L1240,29L1239,75Z" fill="#7a7c7b" stroke="#7a7c7b" stroke-width="1.51"/><path d="M1285,-6L1237,-4L1240,29Z" fill="#bfbebd" stroke="#bfbebd" stroke-width="1.51"/><path d="M1285,-6L1275,-49L1237,-4Z" fill="#c9c8c7" stroke="#c9c8c7" stroke-width="1.51"/><path d="M114,75L115,115L161,72Z" fill="#dbdad9" stroke="#dbdad9" stroke-width="1.51"/><path d="M66,37L114,75L118,32Z" fill="#9b9a98" stroke="#9b9a98" stroke-width="1.51"/><path d="M114,75L74,77L115,115Z" fill="#dddcdb" stroke="#dddcdb" stroke-width="1.51"/><path d="M161,-53L109,-52L113,-10Z" fill="#dfdad9" stroke="#dfdad9" stroke-width="1.51"/><path d="M-18,-57L109,-52L161,-53Z" fill="#e2dddc" stroke="#e2dddc" stroke-width="1.51"/><path d="M1285,80L1283,30L1239,75Z" fill="#abafad" stroke="#abafad" stroke-width="1.51"/><path d="M1283,30L1285,-6L1240,29Z" fill="#b1b3b0" stroke="#b1b3b0" stroke-width="1.51"/><path d="M1329,125L1277,122L1155,122Z" fill="#c3c6c5" stroke="#c3c6c5" stroke-width="1.51"/><path d="M1155,122L1277,122L1199,118Z" fill="#bcbfbe" stroke="#bcbfbe" stroke-width="1.51"/><path d="M1236,118L1277,122L1239,75Z" fill="#c2c5c5" stroke="#c2c5c5" stroke-width="1.51"/><path d="M1277,122L1285,80L1239,75Z" fill="#c5c8c7" stroke="#c5c8c7" stroke-width="1.51"/><path d="M1283,30L1330,-8L1285,-6Z" fill="#c6c6c5" stroke="#c6c6c5" stroke-width="1.51"/><path d="M109,-52L76,-48L113,-10Z" fill="#e1dcdb" stroke="#e1dcdb" stroke-width="1.51"/><path d="M69,-6L118,32L113,-10Z" fill="#dad6d4" stroke="#dad6d4" stroke-width="1.51"/><path d="M76,-48L69,-6L113,-10Z" fill="#e2dddc" stroke="#e2dddc" stroke-width="1.51"/><path d="M69,-6L66,37L118,32Z" fill="#bab8b5" stroke="#bab8b5" stroke-width="1.51"/><path d="M33,117L71,118L74,77Z" fill="#e0dede" stroke="#e0dede" stroke-width="1.51"/><path d="M74,77L71,118L115,115Z" fill="#dedddc" stroke="#dedddc" stroke-width="1.51"/><path d="M115,115L71,118L159,124Z" fill="#dcdbda" stroke="#dcdbda" stroke-width="1.51"/><path d="M1325,76L1327,39L1285,80Z" fill="#bbbfbe" stroke="#bbbfbe" stroke-width="1.51"/><path d="M1285,80L1327,39L1283,30Z" fill="#8d908f" stroke="#8d908f" stroke-width="1.51"/><path d="M1285,-6L1329,-55L1275,-49Z" fill="#cdcccc" stroke="#cdcccc" stroke-width="1.51"/><path d="M1329,125L1325,76L1285,80Z" fill="#cbcfce" stroke="#cbcfce" stroke-width="1.51"/><path d="M1367,35L1330,-8L1327,39Z" fill="#a8aaa7" stroke="#a8aaa7" stroke-width="1.51"/><path d="M1327,39L1330,-8L1283,30Z" fill="#abadaa" stroke="#abadaa" stroke-width="1.51"/><path d="M1330,-8L1329,-55L1285,-6Z" fill="#d0cfce" stroke="#d0cfce" stroke-width="1.51"/><path d="M1275,-49L1329,-55L1236,-52Z" fill="#cbcac9" stroke="#cbcac9" stroke-width="1.51"/><path d="M1236,-52L1329,-55L1152,-56Z" fill="#c4c4c3" stroke="#c4c4c3" stroke-width="1.51"/><path d="M1368,80L1367,35L1327,39Z" fill="#999c9b" stroke="#999c9b" stroke-width="1.51"/><path d="M1277,122L1329,125L1285,80Z" fill="#c9cccc" stroke="#c9cccc" stroke-width="1.51"/><path d="M984,125L1329,125L1155,122Z" fill="#b4b7b7" stroke="#b4b7b7" stroke-width="1.51"/><path d="M1410,126L1329,125L984,125Z" fill="#c1c4c3" stroke="#c1c4c3" stroke-width="1.51"/><path d="M66,37L30,38L74,77Z" fill="#a4a4a2" stroke="#a4a4a2" stroke-width="1.51"/><path d="M69,-6L30,38L66,37Z" fill="#b2b1ad" stroke="#b2b1ad" stroke-width="1.51"/><path d="M28,-13L30,38L69,-6Z" fill="#dcd8d6" stroke="#dcd8d6" stroke-width="1.51"/><path d="M76,-48L28,-13L69,-6Z" fill="#e4dede" stroke="#e4dede" stroke-width="1.51"/><path d="M24,81L33,117L74,77Z" fill="#e1e0df" stroke="#e1e0df" stroke-width="1.51"/><path d="M71,118L-63,127L159,124Z" fill="#e0dfde" stroke="#e0dfde" stroke-width="1.51"/><path d="M24,81L74,77L30,38Z" fill="#d2d1d0" stroke="#d2d1d0" stroke-width="1.51"/><path d="M-17,40L24,81L30,38Z" fill="#adadac" stroke="#adadac" stroke-width="1.51"/><path d="M1368,80L1327,39L1325,76Z" fill="#bfc3c2" stroke="#bfc3c2" stroke-width="1.51"/><path d="M1330,-8L1365,-48L1329,-55Z" fill="#d4d3d2" stroke="#d4d3d2" stroke-width="1.51"/><path d="M28,-13L-13,-5L30,38Z" fill="#ded9d8" stroke="#ded9d8" stroke-width="1.51"/><path d="M76,-48L23,-51L28,-13Z" fill="#e5dfdf" stroke="#e5dfdf" stroke-width="1.51"/><path d="M109,-52L23,-51L76,-48Z" fill="#e3dedd" stroke="#e3dedd" stroke-width="1.51"/><path d="M-18,-57L23,-51L109,-52Z" fill="#e5e0df" stroke="#e5e0df" stroke-width="1.51"/><path d="M-18,-57L161,-53L204,-55Z" fill="#e0dbda" stroke="#e0dbda" stroke-width="1.51"/><path d="M1371,-10L1365,-48L1330,-8Z" fill="#d6d5d5" stroke="#d6d5d5" stroke-width="1.51"/><path d="M1367,118L1368,80L1325,76Z" fill="#d1d5d4" stroke="#d1d5d4" stroke-width="1.51"/><path d="M1408,-14L1371,-10L1413,39Z" fill="#d6d6d5" stroke="#d6d6d5" stroke-width="1.51"/><path d="M1367,35L1371,-10L1330,-8Z" fill="#cfcecd" stroke="#cfcecd" stroke-width="1.51"/><path d="M1413,39L1371,-10L1367,35Z" fill="#b1b3b0" stroke="#b1b3b0" stroke-width="1.51"/><path d="M1329,125L1367,118L1325,76Z" fill="#cfd3d2" stroke="#cfd3d2" stroke-width="1.51"/><path d="M23,-51L-13,-5L28,-13Z" fill="#e7e2e1" stroke="#e7e2e1" stroke-width="1.51"/><path d="M24,81L-16,119L33,117Z" fill="#e3e1e1" stroke="#e3e1e1" stroke-width="1.51"/><path d="M-13,-5L-17,40L30,38Z" fill="#afadab" stroke="#afadab" stroke-width="1.51"/><path d="M1371,-10L1408,-14L1365,-48Z" fill="#dad9d9" stroke="#dad9d9" stroke-width="1.51"/><path d="M1409,76L1367,35L1368,80Z" fill="#c2c5c5" stroke="#c2c5c5" stroke-width="1.51"/><path d="M-17,40L-19,73L24,81Z" fill="#d2d1d1" stroke="#d2d1d1" stroke-width="1.51"/><path d="M-59,30L-55,75L-17,40Z" fill="#a1a1a0" stroke="#a1a1a0" stroke-width="1.51"/><path d="M-17,40L-55,75L-19,73Z" fill="#cccbcb" stroke="#cccbcb" stroke-width="1.51"/><path d="M23,-51L-18,-57L-13,-5Z" fill="#e8e2e2" stroke="#e8e2e2" stroke-width="1.51"/><path d="M248,-56L-18,-57L204,-55Z" fill="#ded9d8" stroke="#ded9d8" stroke-width="1.51"/><path d="M414,-58L-18,-57L248,-56Z" fill="#dad5d4" stroke="#dad5d4" stroke-width="1.51"/><path d="M-19,73L-16,119L24,81Z" fill="#e4e2e2" stroke="#e4e2e2" stroke-width="1.51"/><path d="M33,117L-63,127L71,118Z" fill="#e3e1e1" stroke="#e3e1e1" stroke-width="1.51"/><path d="M1408,-14L1408,-56L1365,-48Z" fill="#dcdbdb" stroke="#dcdbdb" stroke-width="1.51"/><path d="M1365,-48L1408,-56L1329,-55Z" fill="#d8d7d6" stroke="#d8d7d6" stroke-width="1.51"/><path d="M1329,-55L1450,-58L1152,-56Z" fill="#cfcece" stroke="#cfcece" stroke-width="1.51"/><path d="M1152,-56L1450,-58L849,-57Z" fill="#b7b7b6" stroke="#b7b7b6" stroke-width="1.51"/><path d="M849,-57L1450,-58L414,-58Z" fill="#969594" stroke="#969594" stroke-width="1.51"/><path d="M1367,118L1409,76L1368,80Z" fill="#d6d9d9" stroke="#d6d9d9" stroke-width="1.51"/><path d="M1408,-14L1450,-58L1408,-56Z" fill="#e1dfdf" stroke="#e1dfdf" stroke-width="1.51"/><path d="M1409,76L1413,39L1367,35Z" fill="#9c9f9d" stroke="#9c9f9d" stroke-width="1.51"/><path d="M1453,38L1449,-10L1413,39Z" fill="#b4b6b3" stroke="#b4b6b3" stroke-width="1.51"/><path d="M1367,118L1410,126L1409,76Z" fill="#d8dbdb" stroke="#d8dbdb" stroke-width="1.51"/><path d="M1329,125L1410,126L1367,118Z" fill="#d4d7d7" stroke="#d4d7d7" stroke-width="1.51"/><path d="M764,126L1410,126L984,125Z" fill="#a5a8a7" stroke="#a5a8a7" stroke-width="1.51"/><path d="M-19,73L-55,75L-16,119Z" fill="#e4e2e2" stroke="#e4e2e2" stroke-width="1.51"/><path d="M-59,30L-17,40L-13,-5Z" fill="#bcbab7" stroke="#bcbab7" stroke-width="1.51"/><path d="M-61,-10L-59,30L-13,-5Z" fill="#e1dcdb" stroke="#e1dcdb" stroke-width="1.51"/><path d="M-60,-47L-61,-10L-13,-5Z" fill="#e8e2e2" stroke="#e8e2e2" stroke-width="1.51"/><path d="M1450,82L1413,39L1409,76Z" fill="#cfd2d1" stroke="#cfd2d1" stroke-width="1.51"/><path d="M1413,39L1449,-10L1408,-14Z" fill="#dad9d8" stroke="#dad9d8" stroke-width="1.51"/><path d="M-18,-57L-60,-47L-13,-5Z" fill="#e8e2e2" stroke="#e8e2e2" stroke-width="1.51"/><path d="M1410,126L1450,82L1409,76Z" fill="#dcdfdf" stroke="#dcdfdf" stroke-width="1.51"/><path d="M1450,82L1453,38L1413,39Z" fill="#aaaead" stroke="#aaaead" stroke-width="1.51"/><path d="M1449,-10L1450,-58L1408,-14Z" fill="#e3e2e1" stroke="#e3e2e1" stroke-width="1.51"/><path d="M1408,-56L1450,-58L1329,-55Z" fill="#dcdbdb" stroke="#dcdbdb" stroke-width="1.51"/><path d="M1492,-51L1450,-58L1449,-10Z" fill="#e4e2e2" stroke="#e4e2e2" stroke-width="1.51"/><path d="M1410,126L1449,126L1450,82Z" fill="#dee1e1" stroke="#dee1e1" stroke-width="1.51"/><path d="M1496,-5L1449,-10L1453,38Z" fill="#d9d9d7" stroke="#d9d9d7" stroke-width="1.51"/><path d="M-59,30L-63,127L-55,75Z" fill="#e4e2e2" stroke="#e4e2e2" stroke-width="1.51"/><path d="M-55,75L-63,127L-16,119Z" fill="#e4e2e2" stroke="#e4e2e2" stroke-width="1.51"/><path d="M-16,119L-63,127L33,117Z" fill="#e4e2e2" stroke="#e4e2e2" stroke-width="1.51"/><path d="M159,124L-63,127L418,125Z" fill="#d8d8d6" stroke="#d8d8d6" stroke-width="1.51"/><path d="M418,125L-63,127L764,126Z" fill="#c9cac7" stroke="#c9cac7" stroke-width="1.51"/><path d="M764,126L-63,127L1410,126Z" fill="#7e8080" stroke="#7e8080" stroke-width="1.51"/><path d="M1410,126L-63,127L1449,126Z" fill="#959897" stroke="#959897" stroke-width="1.51"/><path d="M-61,-10L-63,127L-59,30Z" fill="#a4a2a1" stroke="#a4a2a1" stroke-width="1.51"/><path d="M1496,-5L1453,38L1503,34Z" fill="#b5b7b4" stroke="#b5b7b4" stroke-width="1.51"/><path d="M1496,-5L1492,-51L1449,-10Z" fill="#e4e2e2" stroke="#e4e2e2" stroke-width="1.51"/><path d="M1495,75L1453,38L1450,82Z" fill="#cfd2d2" stroke="#cfd2d2" stroke-width="1.51"/><path d="M1499,121L1495,75L1450,82Z" fill="#dfe2e2" stroke="#dfe2e2" stroke-width="1.51"/><path d="M1495,75L1503,34L1453,38Z" fill="#9fa2a1" stroke="#9fa2a1" stroke-width="1.51"/><path d="M1496,-5L1503,34L1492,-51Z" fill="#e4e2e2" stroke="#e4e2e2" stroke-width="1.51"/><path d="M1495,75L1499,121L1503,34Z" fill="#dfe2e2" stroke="#dfe2e2" stroke-width="1.51"/><path d="M1449,126L1499,121L1450,82Z" fill="#dfe2e2" stroke="#dfe2e2" stroke-width="1.51"/></svg>